<svg width="70" height="34" viewBox="0 0 70 34" fill="none" xmlns="http://www.w3.org/2000/svg">
<g clip-path="url(#clip0_17505_47207)">
<path d="M51.6863 10.7416C51.5658 10.9635 51.5658 11.2257 51.6863 11.4476L53.4645 14.8769L55.1723 18.054C55.3732 18.4373 55.1019 18.9012 54.67 18.9012H49.9283C49.6169 18.9214 49.3356 18.7298 49.2251 18.4373L47.9492 15.2299C47.6981 14.5945 46.7638 14.8063 46.794 15.4921C46.794 15.5022 46.794 15.5123 46.794 15.5224L46.9246 18.1145C46.9447 18.5482 46.6031 18.9113 46.1711 18.9113H41.9619C41.5299 18.9113 41.1783 18.5482 41.1984 18.1145L41.2486 17.2774C41.2486 17.2774 41.2486 17.2471 41.2486 17.237V1.61376C41.2486 1.34144 41.2185 1.08929 41.1984 0.83714C41.1682 0.393355 41.5098 0.0201721 41.9518 0.0201721H46.1711C46.593 0.0201721 46.9346 0.353011 46.9346 0.776624C46.9346 1.20024 46.9145 1.59359 46.9045 2.02729L46.7739 5.89024C46.7538 6.41471 46.7337 6.9291 46.7136 7.4334C46.6935 8.04865 47.5474 8.2302 47.7785 7.66538L49.3657 3.85286C49.4863 3.57045 49.7575 3.38891 50.0689 3.38891H54.3686C54.9412 3.38891 55.3129 4.01424 55.0316 4.51854L52.7713 8.67398L51.6863 10.7517V10.7416Z" fill="#222222"></path>
<path d="M26.5514 7.16107V15.0181L26.6217 18.1649C26.6217 18.5785 26.3003 18.9214 25.8884 18.9214H21.87C21.4883 18.9214 21.1768 18.639 21.1367 18.2557C21.0764 17.5699 20.2024 17.3379 19.8106 17.9027C19.1777 18.8104 18.2434 19.3652 16.6662 19.4055C15.2698 19.4358 14.0543 18.9516 13.3511 17.6606C12.6981 16.4503 12.6077 15.1089 12.467 13.6968C12.467 13.6766 12.467 13.6464 12.467 13.6262L12.4369 4.89172C12.4369 4.05458 13.11 3.37881 13.9337 3.37881H16.7566C17.5904 3.37881 18.2635 4.05458 18.2635 4.89172V13.3337C18.2635 13.9086 18.6654 14.4432 19.1275 14.5945C19.6599 14.776 20.3531 14.5037 20.6143 13.9086C20.7549 13.5859 20.9056 12.9908 20.9056 12.6075L20.8654 6.85849L20.7951 4.95223C20.765 4.09492 21.4481 3.3889 22.302 3.3889H25.1048C25.9487 3.3889 26.6217 4.09492 26.6016 4.94215L26.5514 7.17116V7.16107Z" fill="#222222"></path>
<path d="M66.8556 16.8739C66.494 18.1347 66.1122 19.224 65.4693 20.2729C64.0829 22.5322 62.1441 23.0062 59.8837 23.0365C58.9997 23.0466 57.101 19.1735 58.186 19.1735C58.7787 19.1735 59.3011 19.1534 59.8034 18.881C60.1148 18.7096 60.2655 18.3364 60.1751 17.9935L58.5878 12.3554L56.1667 3.90329C56.0663 3.56036 56.3275 3.21744 56.6791 3.21744H60.8682C61.2399 3.21744 61.5614 3.47967 61.6217 3.85286L63.2491 13.4346C63.5204 13.1522 63.5505 12.8193 63.6108 12.4058L64.8263 3.87303C64.8766 3.48976 65.2081 3.20735 65.5898 3.20735L69.2264 3.22752C69.7187 3.22752 70.0904 3.70157 69.9698 4.1857L66.8456 16.884L66.8556 16.8739Z" fill="#222222"></path>
<path d="M9.94562 18.9214H1.02484C0.452227 18.9214 -0.00988518 18.4473 0.000160745 17.8724L0.0704822 14.5642C0.140804 11.2661 0.15085 8.01839 0.0905741 4.72026L0.000160745 1.05903C-0.00988518 0.484129 0.452227 0 1.02484 0H4.98294C5.54551 0 6.00762 0.463957 6.00762 1.03886L5.97749 12.2747C5.97749 12.8395 6.42955 13.2934 6.98208 13.3035C8.07708 13.3236 9.11181 13.2732 10.2771 13.1118C10.6287 13.0614 10.9402 13.3337 10.9402 13.6867L10.9603 17.8825C10.9603 18.4574 10.5082 18.9214 9.93558 18.9214H9.94562Z" fill="#222222"></path>
<path d="M34.7087 13.2732C35.6128 14.4835 37.0594 14.3222 38.496 14.0599C38.8677 13.9893 39.2093 14.2818 39.2093 14.655V18.4675C39.2093 18.7398 39.0385 18.9819 38.7773 19.0525C37.6722 19.3753 36.5873 19.345 35.4119 19.3853C32.589 19.4761 30.0474 18.0338 29.0528 15.3005C28.1085 12.7286 28.1487 9.88431 29.1131 7.30228C30.5999 3.36873 34.7388 2.24918 38.5965 3.2477C38.8677 3.3183 39.0485 3.56037 39.0485 3.83269V7.64521C39.0485 8.01839 38.717 8.3008 38.3554 8.25037C37.833 8.16968 37.3709 8.09908 36.9087 8.06882C35.4923 7.97805 34.4676 8.92613 34.2365 10.2373C34.0457 11.2863 34.0858 12.4058 34.7288 13.2631L34.7087 13.2732Z" fill="#222222"></path>
<path d="M18.1228 30.6313C17.5201 30.9944 16.857 31.297 16.1337 31.307L13.0295 31.3373C12.2058 31.3373 11.5327 30.6716 11.5528 29.8345L11.5729 28.5334C11.6131 26.5162 11.603 26.2943 11.5729 24.267L11.5427 22.5927C11.5327 21.8665 12.1153 21.2714 12.8387 21.2714H15.5511C15.7017 21.2714 15.8725 21.3017 16.0433 21.332C17.942 21.685 19.8105 22.9558 20.132 24.8621C20.6946 28.1804 19.6799 29.6832 18.1228 30.6212V30.6313ZM17.3091 25.7395C17.2488 25.1646 17.0379 24.6099 16.415 24.0955C16.0333 23.7829 15.4807 23.7022 14.9985 23.7929C14.7876 23.8333 14.6369 24.0148 14.6369 24.2367V28.493C14.6369 28.725 14.8177 28.9166 15.0488 28.9368C15.4004 28.9671 15.7419 28.9772 16.0031 28.846C17.4296 28.1602 17.4497 27.0911 17.3091 25.7395Z" fill="#222222"></path>
<path d="M46.9245 31.3474H44.634C44.4632 31.3575 44.3025 31.2667 44.2322 31.1053L42.8961 28.3216C42.7454 27.9988 42.2632 28.1198 42.2732 28.4728C42.2933 29.2696 42.3837 30.0564 42.3938 30.8935C42.3938 31.1456 42.1928 31.3474 41.9517 31.3474H39.8823C39.611 31.3474 39.4101 31.1255 39.4403 30.8532C39.4403 30.7825 39.4503 30.722 39.4503 30.6615V22.3405C39.4503 22.2901 39.4503 22.1993 39.4503 22.1388C39.4101 21.8665 39.6211 21.6244 39.8923 21.6244H41.4796C41.9919 21.6244 42.4138 22.038 42.4038 22.5524C42.4038 22.8448 42.3435 24.2367 42.3536 24.7511C42.3636 25.2251 42.7152 25.2655 42.9161 24.8419C43.3079 24.035 43.8605 22.8146 44.2924 22.0783C44.4632 21.7858 44.7746 21.6143 45.1062 21.6143L46.392 21.6345C46.9847 21.6345 47.3363 22.2901 47.035 22.7944L45.9701 24.5393L44.9655 26.2237C44.8851 26.3649 44.8851 26.5363 44.9655 26.6876L47.3263 30.6615C47.5071 30.954 47.2861 31.3373 46.9446 31.3373L46.9245 31.3474Z" fill="#222222"></path>
<path d="M29.8062 22.159V30.7523C29.8062 30.7523 29.8062 30.7725 29.8062 30.7825V30.8733C29.8263 31.1356 29.6254 31.3474 29.3642 31.3474H27.4153C27.1742 31.3474 26.9833 31.1557 26.9733 30.9238C26.9532 30.5203 26.4408 30.369 26.2098 30.6918C26.1395 30.7926 26.0591 30.8834 25.9687 30.9742C24.7632 32.1442 22.8042 31.7407 22.2316 30.5909C21.9403 30.016 21.6992 29.3201 21.6992 28.6443L21.6791 22.7036C21.6791 22.1086 22.1613 21.6244 22.754 21.6244H24.0198C24.3714 21.6244 24.6527 21.9068 24.6426 22.2599L24.6225 23.0768V27.8879C24.6225 28.4829 25.0043 29.0679 25.597 29.1083C26.3203 29.1587 26.8427 28.5233 26.8427 27.7971V23.2483C26.8427 22.9154 26.8125 22.6028 26.7925 22.28C26.7724 21.9169 27.0536 21.6143 27.4153 21.6143H29.4345C29.4345 21.6143 29.6154 21.6143 29.7359 21.7858C29.8263 21.9068 29.8062 21.9774 29.8062 22.1489V22.159Z" fill="#222222"></path>
<path d="M35.4923 28.8561C36.1352 29.1285 36.7379 28.957 37.2704 28.8561C37.5517 28.8057 37.8129 29.0175 37.8129 29.2999V30.9641C37.8229 31.1557 37.7124 31.3272 37.5316 31.3877C35.9644 31.9122 34.1059 31.7912 32.7999 30.6918C31.7552 29.8042 31.3031 28.4729 31.3031 27.1415V26.1733C31.3031 24.9629 31.6447 23.8837 32.368 22.8953C32.378 22.8751 32.3981 22.865 32.4082 22.8449C34.3269 21.1302 35.5827 21.1807 37.1096 21.4832C37.3407 21.5337 37.6521 21.5841 37.6521 21.8665V23.6921C37.6421 23.9846 37.3608 24.1964 37.0795 24.1258L36.8284 24.0552C36.1955 23.8736 35.4923 24.0148 34.99 24.4485C34.3671 24.9831 34.2566 25.7496 34.2466 26.5565C34.2466 27.4643 34.5379 28.4426 35.4923 28.846V28.8561Z" fill="#222222"></path>
<path d="M54.901 21.7253C55.5339 21.7253 55.996 22.3305 55.8453 22.9457L54.0571 30.1875C53.816 31.1658 53.5046 32.0736 52.8717 32.8603C51.8169 34.1916 50.3904 33.9798 48.994 33.9798C48.8534 33.9798 48.6524 33.7781 48.6524 33.647V32.235C48.6524 31.3373 49.647 32.3661 50.4105 31.5289C50.5009 31.4281 50.5411 31.2869 50.521 31.1457C50.3904 30.4094 50.1593 29.6731 49.9484 28.9469L48.0195 22.27C47.9392 21.9875 48.1501 21.7051 48.4415 21.7051H50.4205C50.6315 21.7051 50.8123 21.8463 50.8525 22.0582L51.0836 23.1777L51.5658 25.5983L51.9073 27.3331C51.9676 27.6256 52.3795 27.6156 52.4297 27.3331L52.932 24.2468L53.3037 22.0884C53.3439 21.8766 53.5247 21.7152 53.7457 21.7152H54.901V21.7253Z" fill="#222222"></path>
</g>
<defs>
<clipPath id="clip0_17505_47207">
<rect width="70" height="34" fill="white"></rect>
</clipPath>
</defs>
</svg>